<?xml version="1.0" standalone="no"?>
<!DOCTYPE svg PUBLIC "-//W3C//DTD SVG 20010904//EN"
 "http://www.w3.org/TR/2001/REC-SVG-20010904/DTD/svg10.dtd">
<svg version="1.0" xmlns="http://www.w3.org/2000/svg"
 width="225.000000pt" height="225.000000pt" viewBox="0 0 225.000000 225.000000"
 preserveAspectRatio="xMidYMid meet">
<metadata>
Created by potrace 1.15, written by Peter Selinger 2001-2017
</metadata>
<g transform="translate(0.000000,225.000000) scale(0.100000,-0.100000)"
fill="#000000" stroke="none">
<path d="M925 1501 c-93 -54 -182 -110 -197 -124 l-28 -26 0 -224 c0 -200 2
-227 17 -245 26 -30 377 -232 404 -232 23 0 358 188 397 223 22 20 22 25 22
252 0 227 0 232 -22 252 -43 37 -374 223 -399 223 -13 -1 -100 -45 -194 -99z
m319 -497 c24 -17 28 -17 52 0 17 13 19 30 22 170 l3 156 35 0 34 0 0 -154 c0
-85 -5 -167 -11 -183 -26 -68 -89 -96 -164 -71 -66 21 -75 52 -75 245 l0 162
38 3 37 3 5 -158 c4 -142 7 -160 24 -173z m-180 144 c25 -101 49 -193 52 -205
6 -21 3 -23 -38 -23 -45 0 -45 0 -54 43 -9 42 -10 42 -56 45 -49 3 -48 5 -62
-60 -6 -25 -11 -28 -47 -28 -34 0 -40 3 -35 18 5 15 51 184 95 350 12 41 13
42 55 42 l43 0 47 -182z"/>
</g>
</svg>
